# AST/ASF file generated using VICON BodyLanguage
# -----------------------------------------------
:version 1.10
:name VICON
:units
  mass 1.0
  length 0.45
  angle deg
:documentation
   .ast/.asf automatically generated from VICON data using
   VICON BodyBuilder and BodyLanguage model FoxedUp or BRILLIANT.MOD
:root
   order TX TY TZ RX RY RZ
   axis XYZ
   position 0 0 0  
   orientation 0 -0 0 
:bonedata
  begin
     id 1 
     name lhipjoint
     direction 0.500677 -0.737119 0.453848 
     length 2.34727 
     axis 0 -0 0  XYZ
  end
  begin
     id 2 
     name lfemur
     direction 0.34202 -0.939693 0  
     length 7.53653  
     axis 0 -0 20  XYZ
    dof rx ry rz
    limits (-160.0 20.0)
           (-70.0 70.0)
           (-60.0 70.0)
  end
  begin
     id 3 
     name ltibia
     direction 0.34202 -0.939693 0   
     length 6.85572   
     axis 0 -0 20   XYZ
    dof rx
    limits (-10.0 170.0)
  end
  begin
     id 4 
     name lfoot
     direction 0.155313 -0.426718 0.890949   
     length 2.18324   
     axis -90 -1.13533e-015 20   XYZ
    dof rx rz
    limits (-45.0 90.0)
           (-70.0 20.0)
  end
  begin
     id 5 
     name ltoes
     direction 1.53474e-011 -4.21647e-011 1   
     length 1.06748   
     axis -90 -1.13533e-015 20   XYZ
    dof rx
    limits (-90.0 20.0)
  end
  begin
     id 6 
     name rhipjoint
     direction -0.632471 -0.659587 0.406111   
     length 2.62319  
     axis 0 -0 0  XYZ 
  end
  begin
     id 7 
     name rfemur
     direction -0.34202 -0.939693 0   
     length 7.21735   
     axis 0 -0 -20   XYZ
    dof rx ry rz
    limits (-160.0 20.0)
           (-70.0 70.0)
           (-70.0 60.0)
  end
  begin
     id 8 
     name rtibia
     direction -0.34202 -0.939693 0   
     length 7.02558   
     axis 0 -0 -20   XYZ
    dof rx
    limits (-10.0 170.0)
 end
 begin
     id 9 
     name rfoot
     direction -0.16057 -0.441164 0.882945   
     length 2.10014  
     axis -90 1.13533e-015 -20   XYZ
    dof rx rz
    limits (-45.0 90.0)
           (-20.0 70.0)
  end
  begin
     id 10 
     name rtoes
     direction -1.53553e-011 -4.2192e-011 1   
     length 1.02554   
     axis -90 1.13533e-015 -20   XYZ
    dof rx
    limits (-90.0 20.0)
  end
  begin
     id 11 
     name lowerback
     direction 0.0401429 0.998861 -0.0258085   
     length 1.80848   
     axis 0 -0 0   XYZ
    dof rx ry rz
    limits (-20.0 45.0)
           (-30.0 30.0)
           (-30.0 30.0)
  end
  begin
     id 12 
     name upperback
     direction -0.0130978 0.999914 -0.000352645   
     length 1.8116   
     axis 0 -0 0   XYZ
    dof rx ry rz
    limits (-20.0 45.0)
           (-30.0 30.0)
           (-30.0 30.0)
  end
  begin
     id 13 
     name thorax
     direction -0.0300198 0.999453 0.0138573   
     length 1.81778   
     axis 0 -0 0   XYZ
    dof rx ry rz
    limits (-20.0 45.0)
           (-30.0 30.0)
           (-30.0 30.0)
  end
  begin
     id 14 
     name lowerneck
     direction -0.0401726 0.999191 -0.00173647   
     length 2.10594   
     axis 0 -0 0   XYZ
    dof rx ry rz
    limits (-20.0 45.0)
           (-30.0 30.0)
           (-30.0 30.0)
  end
  begin
     id 15 
     name upperneck
     direction 0.0119835 0.998501 0.0534085   
     length 2.07325   
     axis 0 -0 0   XYZ
    dof rx ry rz
    limits (-20.0 45.0)
           (-30.0 30.0)
           (-30.0 30.0)
  end
  begin
     id 16
     name head
     direction 0.00628309 0.999826 0.0175921  
     length 2.15096  
     axis 0 -0 0   XYZ
    dof rx ry rz
    limits (-20.0 45.0)
           (-30.0 30.0)
           (-30.0 30.0)
  end
  begin
     id 17 
     name lclavicle
     direction 0.895501 0.429681 -0.115981  
     length 4.18092  
     axis 0 -0 0   XYZ
    dof ry rz
    limits (-20.0 10.0)
           (0.0 20.0)
  end
  begin
     id 18 
     name lhumerus
     direction 1 -4.48961e-011 -3.38433e-028   
     length 5.77237   
     axis 180 -30 -90   XYZ
    dof rx ry rz
    limits (-60.0 90.0)
           (-90.0 90.0)
           (-90.0 90.0)
  end
  begin
     id 19
     name lradius
     direction 1 -4.4901e-011 1.11983e-026   
     length 2.91878   
     axis 180 -30 -90   XYZ
    dof rx
    limits (-10.0 170.0)
  end
  begin
     id 20
     name lwrist
     direction 1 -4.48934e-011 1.88176e-026   
     length 1.45939   
     axis -1.23311e-014 90 90   XYZ
    dof ry
    limits (-180.0 0.0)
 end
  begin
     id 21 
     name lhand
     direction 1 -4.4895e-011 3.76352e-026   
     length 1.06566   
     axis -2.40147e-014 90 90   XYZ
    dof rx rz
    limits (-90.0 90.0)
           (-45.0 45.0)
  end
  begin
     id 22 
     name lfingers
     direction 1 -4.49005e-011 7.52705e-026   
     length 0.859162   
     axis -4.80295e-014 90 90   XYZ
    dof rx
    limits (0.0 90.0)
  end
  begin
     id 23
     name lthumb
     direction 0.707107 -6.34885e-011 0.707107   
     length 1.23359   
     axis -90 45 -9.86935e-015   XYZ
    dof rx rz
    limits (-45.0 45.0)
           (-45.0 45.0)
  end
  begin
     id 24 
     name rclavicle
     direction -0.91006 0.40451 -0.0903492   
     length 4.23293  
     axis 0 -0 0   XYZ 
    dof ry rz
    limits (-10.0 20.0)
           (-20.0 0.0)
  end
  begin
     id 25 
     name rhumerus
     direction -1 -4.4897e-011 1.7415e-027  
     length 5.49854   
     axis 180 30 90   XYZ
    dof rx ry rz
    limits (-90.0 60.0)
           (-90.0 90.0)
           (-90.0 90.0)
  end
  begin
     id 26 
     name rradius
     direction -1 -4.48963e-011 1.21259e-026   
     length 3.1186   
     axis 180 30 90   XYZ
    dof rx
    limits (-10.0 170.0)
  end
  begin
     id 27 
     name rwrist
     direction -1 -4.48967e-011 1.88176e-026   
     length 1.5593   
     axis -1.23311e-014 -90 -90   XYZ
    dof ry
    limits (-180.0 0.0)
  end
  begin
     id 28
     name rhand
     direction -1 -4.4895e-011 3.76352e-026   
     length 0.71207   
     axis -2.40147e-014 -90 -90   XYZ
    dof rx rz
    limits (-90.0 90.0)
           (-45.0 45.0)
  end
  begin
     id 29
     name rfingers
     direction -1 -4.49005e-011 7.52705e-026   
     length 0.574089   
     axis -4.80295e-014 -90 -90   XYZ
    dof rx
    limits (0.0 90.0)
  end
  begin
     id 30
     name rthumb
     direction -0.707107 -6.34982e-011 0.707107   
     length 0.824281   
     axis -90 -45 9.86935e-015   XYZ
    dof rx rz
    limits (-45.0 45.0)
           (-45.0 45.0)
  end
:hierarchy
  begin
    root lhipjoint rhipjoint lowerback
    lhipjoint lfemur
    lfemur ltibia
    ltibia lfoot
    lfoot ltoes
    rhipjoint rfemur
    rfemur rtibia
    rtibia rfoot
    rfoot rtoes
    lowerback upperback
    upperback thorax
    thorax lowerneck lclavicle rclavicle
    lowerneck upperneck
    upperneck head
    lclavicle lhumerus
    lhumerus lradius
    lradius lwrist
    lwrist lhand lthumb
    lhand lfingers
    rclavicle rhumerus
    rhumerus rradius
    rradius rwrist
    rwrist rhand rthumb
    rhand rfingers
  end

#!OML:ASF C:\ViconDB\ViconDB\414\Spring2016\042216\male.ASF
:FULLY-SPECIFIED
:DEGREES
22
root -44.7956 16.987 13.4942 -166.934 85.5313 -167.064
lowerback -3.08197 -1.67778 4.35444
upperback -0.219286 -2.37448 -0.576167
thorax 1.30056 -1.15937 -3.12795
lowerneck -3.16011 2.35101 -3.28573
upperneck 3.03755 3.3021 -0.123244
head 1.41767 1.61193 0.581968
rclavicle 3.37344e-014 -6.08778e-015
rhumerus -33.9667 -11.3213 -86.4227
rradius 28.5754
rwrist 42.0374
rhand 8.25961 -17.5896
rfingers 7.12502
rthumb 33.4738 -44.4886
lclavicle 3.37344e-014 -6.08778e-015
lhumerus -38.883 18.6064 81.5695
lradius 34.3803
lwrist -15.319
lhand -2.41239 9.83888
lfingers 7.12502
lthumb 23.2778 38.4518
rfemur -10.5278 0.598574 20.1505
rtibia 28.176
rfoot -19.1656 -0.00535255
rtoes -6.2253
lfemur -9.27178 -2.80073 -18.836
ltibia 28.285
lfoot -27.9384 8.62354
ltoes -15.5071
23
root -44.8005 16.9889 13.4946 -167.119 85.5257 -167.272
lowerback -3.05962 -1.68131 4.31418
upperback -0.218972 -2.37685 -0.573006
thorax 1.28992 -1.16106 -3.1014
lowerneck -3.14402 2.37462 -3.33589
upperneck 2.88589 3.33014 -0.0555809
head 1.36436 1.62839 0.609674
rclavicle 2.47572e-014 -9.93923e-015
rhumerus -33.9633 -11.3324 -86.397
rradius 28.6784
rwrist 42.0541
rhand 8.42139 -17.7161
rfingers 7.12502
rthumb 33.6276 -44.5818
lclavicle 2.47572e-014 -9.93923e-015
lhumerus -38.7204 18.239 81.9033
lradius 34.5102
lwrist -14.1523
lhand -3.3751 9.43592
lfingers 7.12502
lthumb 22.3539 38.1627
rfemur -10.5536 0.66072 20.1391
rtibia 28.1418
rfoot -19.1519 -0.124055
rtoes -6.47711
lfemur -9.33516 -2.81217 -18.8482
ltibia 28.3063
lfoot -27.956 8.58048
ltoes -15.3637
24
root -44.8049 16.9923 13.4961 -166.251 85.5279 -166.428
lowerback -3.04261 -1.67817 4.37
upperback -0.225595 -2.37371 -0.561766
thorax 1.27206 -1.15971 -3.12023
lowerneck -3.05765 2.39115 -3.36638
upperneck 2.63613 3.34349 0.0225765
head 1.26822 1.63917 0.634432
rclavicle -1.36315e-014 -2.48481e-017
rhumerus -33.9473 -11.3374 -86.4332
rradius 28.7958
rwrist 41.7892
rhand 8.77382 -18.4711
rfingers 7.12502
rthumb 33.9624 -45.2632
lclavicle -1.36315e-014 -2.48481e-017
lhumerus -38.6946 17.7539 82.2493
lradius 34.8271
lwrist -12.6734
lhand -3.34606 9.81641
lfingers 7.12502
lthumb 22.3818 38.5398
rfemur -10.589 0.601536 20.209
rtibia 28.0961
rfoot -19.0737 0.0203064
rtoes -6.16478
lfemur -9.41029 -2.75471 -18.7672
ltibia 28.3376
lfoot -27.9417 8.53758
ltoes -15.4378
25
root -44.8101 16.9926 13.4977 -165.614 85.5337 -165.81
lowerback -3.01834 -1.6731 4.37398
upperback -0.222638 -2.36615 -0.552404
thorax 1.26239 -1.15612 -3.11175
lowerneck -3.03126 2.3954 -3.32959
upperneck 2.43342 3.34177 0.0714123
head 1.19932 1.64177 0.640219
rclavicle -9.86702e-015 -2.01269e-015
rhumerus -33.8797 -11.4883 -86.3995
rradius 28.961
rwrist 41.3155
rhand 9.86587 -19.0058
rfingers 7.12502
rthumb 34.9991 -45.562
lclavicle -9.86702e-015 -2.01269e-015
lhumerus -38.5579 17.4966 82.4933
lradius 35.003
lwrist -11.3485
lhand -1.4884 10.0774
lfingers 7.12502
lthumb 24.164 38.5753
rfemur -10.6215 0.666461 20.2659
rtibia 28.0627
rfoot -19.0776 -0.0265492
rtoes -6.12252
lfemur -9.4601 -2.79514 -18.7084
ltibia 28.3654
lfoot -27.9222 8.57002
ltoes -15.4327
26
root -44.8145 16.9927 13.4991 -164.986 85.5232 -165.182
lowerback -2.99256 -1.67488 4.39727
upperback -0.211414 -2.36847 -0.547695
thorax 1.25856 -1.15709 -3.11935
lowerneck -3.01663 2.41821 -3.33848
upperneck 2.24623 3.36467 0.21401
head 1.13509 1.65732 0.683561
rclavicle 4.28334e-014 -5.46658e-015
rhumerus -33.8205 -11.5673 -86.4018
rradius 29.1074
rwrist 41.0379
rhand 10.6903 -19.5622
rfingers 7.12502
rthumb 35.7808 -45.9323
lclavicle 4.28334e-014 -5.46658e-015
lhumerus -38.4414 17.0462 82.892
lradius 35.1272
lwrist -10.4241
lhand -0.952537 10.3152
lfingers 7.12502
lthumb 24.6777 38.7439
rfemur -10.6261 0.717946 20.3281
rtibia 28.0378
rfoot -19.0388 -0.0858871
rtoes -6.33085
lfemur -9.49226 -2.76404 -18.6518
ltibia 28.3914
lfoot -27.9327 8.57226
ltoes -15.4457
27
root -44.8187 16.9915 13.5003 -164.781 85.5326 -164.96
lowerback -2.95233 -1.67174 4.38399
upperback -0.194863 -2.36218 -0.572735
thorax 1.25308 -1.15394 -3.13642
lowerneck -3.00575 2.41665 -3.26004
upperneck 2.07903 3.35368 0.310827
head 1.08046 1.65556 0.697833
rclavicle 3.07184e-015 9.93923e-016
rhumerus -33.7483 -11.5301 -86.5269
rradius 29.2442
rwrist 40.4743
rhand 11.4272 -20.4986
rfingers 7.12502
rthumb 36.4787 -46.6961
lclavicle 3.07184e-015 9.93923e-016
lhumerus -38.3893 16.6301 83.1838
lradius 35.291
lwrist -9.59924
lhand 0.414522 10.3955
lfingers 7.12502
lthumb 25.9874 38.6386
rfemur -10.6255 0.7135 20.3504
rtibia 28.0323
rfoot -19.0001 -0.0597113
rtoes -6.32829
lfemur -9.48657 -2.78733 -18.6301
ltibia 28.4049
lfoot -27.9115 8.62083
ltoes -15.5043
28
root -44.8227 16.9898 13.5013 -164.245 85.5247 -164.415
lowerback -2.94348 -1.67489 4.38587
upperback -0.173875 -2.36667 -0.566709
thorax 1.26952 -1.15547 -3.13155
lowerneck -2.94113 2.40265 -3.26931
upperneck 1.83112 3.32645 0.454731
head 0.989888 1.64647 0.739104
rclavicle 2.07652e-014 1.14301e-015
rhumerus -33.6661 -11.5766 -86.5638
rradius 29.341
rwrist 40.3346
rhand 11.6048 -21.7257
rfingers 7.12502
rthumb 36.6468 -47.8806
lclavicle 2.07652e-014 1.14301e-015
lhumerus -38.2501 16.2962 83.5253
lradius 35.3647
lwrist -8.67603
lhand 0.914263 10.6303
lfingers 7.12502
lthumb 26.4658 38.8022
rfemur -10.624 0.701973 20.3994
rtibia 28.0097
rfoot -18.9716 -0.0595833
rtoes -6.46522
lfemur -9.5029 -2.7796 -18.5743
ltibia 28.4348
lfoot -27.9488 8.57988
ltoes -15.4572
29
root -44.8269 16.9898 13.5014 -163.864 85.5165 -164.03
lowerback -2.91786 -1.68672 4.40084
upperback -0.165681 -2.38196 -0.566604
thorax 1.26168 -1.16311 -3.13958
lowerneck -2.90031 2.39792 -3.34965
upperneck 1.63066 3.31379 0.701139
head 0.915877 1.64475 0.825522
rclavicle -3.33415e-014 1.20762e-014
rhumerus -33.6373 -11.5023 -86.5745
rradius 29.5256
rwrist 40.4011
rhand 11.8222 -23.1651
rfingers 7.12502
rthumb 36.8525 -49.2675
lclavicle -3.33415e-014 1.20762e-014
lhumerus -38.1609 15.9862 83.8684
lradius 35.473
lwrist -7.79164
lhand 1.7476 10.6746
lfingers 7.12502
lthumb 27.2632 38.724
rfemur -10.625 0.641878 20.4315
rtibia 27.9834
rfoot -18.9656 0.0219519
rtoes -6.29769
lfemur -9.53761 -2.74428 -18.5411
ltibia 28.465
lfoot -27.9614 8.55047
ltoes -15.4138
30
root -44.8315 16.9918 13.5015 -163.38 85.5002 -163.578
lowerback -2.92112 -1.69681 4.41056
upperback -0.171853 -2.39595 -0.544636
thorax 1.25649 -1.17026 -3.12282
lowerneck -2.85291 2.39546 -3.48114
upperneck 1.43536 3.30615 0.982105
head 0.841334 1.64539 0.931624
rclavicle -2.83625e-014 3.97569e-015
rhumerus -33.6573 -11.5482 -86.403
rradius 29.7438
rwrist 41.3657
rhand 12.597 -24.3758
rfingers 7.12502
rthumb 37.5851 -50.2867
lclavicle -2.83625e-014 3.97569e-015
lhumerus -38.0698 15.8432 84.1675
lradius 35.4991
lwrist -7.14172
lhand 2.3306 10.6608
lfingers 7.12502
lthumb 27.8207 38.6213
rfemur -10.6761 0.520491 20.4685
rtibia 27.9583
rfoot -18.9725 0.11472
rtoes -6.08711
lfemur -9.61829 -2.63211 -18.4879
ltibia 28.4883
lfoot -27.9767 8.41126
ltoes -15.4508
31
root -44.8368 16.9934 13.5012 -163.021 85.4748 -163.245
lowerback -2.91052 -1.70392 4.42824
upperback -0.182145 -2.40523 -0.543373
thorax 1.23848 -1.17539 -3.13109
lowerneck -2.82064 2.38345 -3.52167
upperneck 1.28929 3.28529 1.19953
head 0.787305 1.63852 1.00361
rclavicle 2.36725e-014 -9.93923e-016
rhumerus -33.6101 -11.8168 -86.2813
rradius 29.8292
rwrist 42.6388
rhand 12.6761 -25.5491
rfingers 7.12502
rthumb 37.6599 -51.44
lclavicle 2.36725e-014 -9.93923e-016
lhumerus -37.9748 15.7737 84.3723
lradius 35.4387
lwrist -6.75416
lhand 2.5776 10.8077
lfingers 7.12502
lthumb 28.0568 38.7297
rfemur -10.7147 0.47622 20.4967
rtibia 27.9248
rfoot -18.9607 0.153782
rtoes -5.9594
lfemur -9.68915 -2.61216 -18.4513
ltibia 28.5205
lfoot -27.9707 8.40772
ltoes -15.5062
32
root -44.8421 16.993 13.5006 -162.549 85.4621 -162.788
lowerback -2.89433 -1.69383 4.47656
upperback -0.191636 -2.39198 -0.572507
thorax 1.21757 -1.16917 -3.18699
lowerneck -2.76297 2.33899 -3.45341
upperneck 1.14449 3.21813 1.35685
head 0.73294 1.60807 1.0375
rclavicle -2.12762e-015 4.37326e-015
rhumerus -33.5735 -11.99 -86.2652
rradius 29.859
rwrist 43.5093
rhand 12.7975 -26.7814
rfingers 7.12502
rthumb 37.7746 -52.6416
lclavicle -2.12762e-015 4.37326e-015
lhumerus -37.9323 15.5065 84.617
lradius 35.4326
lwrist -6.59811
lhand 2.87314 10.8019
lfingers 7.12502
lthumb 28.3393 38.6773
rfemur -10.7491 0.369453 20.5218
rtibia 27.9052
rfoot -18.8946 0.278561
rtoes -6.08707
lfemur -9.73115 -2.68166 -18.4071
ltibia 28.5409
lfoot -28.0345 8.47425
ltoes -15.9669
